<svg width="21" height="22" viewBox="0 0 21 22" fill="none" xmlns="http://www.w3.org/2000/svg">
<path d="M11.433 4.41992L20.067 19.3739C20.1986 19.6019 20.2679 19.8606 20.2679 20.1239C20.2679 20.3872 20.1986 20.6459 20.067 20.8739C19.9353 21.1019 19.746 21.2913 19.518 21.4229C19.2899 21.5546 19.0313 21.6239 18.768 21.6239H1.49996C1.23666 21.6239 0.977999 21.5546 0.749975 21.4229C0.521952 21.2913 0.3326 21.1019 0.200952 20.8739C0.0693043 20.6459 -1.67225e-06 20.3872 0 20.1239C1.67231e-06 19.8606 0.0693109 19.6019 0.200962 19.3739L8.83496 4.41992C9.41196 3.41992 10.855 3.41992 11.433 4.41992ZM10.134 16.2719C9.86875 16.2719 9.61439 16.3773 9.42686 16.5648C9.23932 16.7524 9.13396 17.0067 9.13396 17.2719C9.13396 17.5371 9.23932 17.7915 9.42686 17.979C9.61439 18.1666 9.86875 18.2719 10.134 18.2719C10.3992 18.2719 10.6535 18.1666 10.8411 17.979C11.0286 17.7915 11.134 17.5371 11.134 17.2719C11.134 17.0067 11.0286 16.7524 10.8411 16.5648C10.6535 16.3773 10.3992 16.2719 10.134 16.2719ZM10.134 9.27192C9.88903 9.27195 9.65262 9.36188 9.46959 9.52464C9.28655 9.6874 9.16962 9.91167 9.14096 10.1549L9.13396 10.2719V14.2719C9.13424 14.5268 9.23184 14.772 9.40681 14.9573C9.58178 15.1426 9.82091 15.2542 10.0754 15.2691C10.3298 15.284 10.5803 15.2012 10.7758 15.0377C10.9712 14.8741 11.0969 14.642 11.127 14.3889L11.134 14.2719V10.2719C11.134 10.0067 11.0286 9.75235 10.8411 9.56482C10.6535 9.37728 10.3992 9.27192 10.134 9.27192Z" fill="white"/>
</svg>
