<svg width="34" height="31" viewBox="0 0 34 31" fill="none" xmlns="http://www.w3.org/2000/svg">
<path d="M22.1 1.72684e-07C22.9578 -0.000274831 23.784 0.327922 24.4129 0.9188C25.0419 1.50968 25.4272 2.31957 25.4915 3.18611L25.5 3.44444C25.5001 3.86627 25.6529 4.27341 25.9296 4.58864C26.2063 4.90387 26.5876 5.10526 27.0011 5.15461L27.2 5.16667H28.9C30.2009 5.16659 31.4526 5.67012 32.399 6.57421C33.3455 7.47831 33.9152 8.71463 33.9915 10.0302L34 10.3333V25.8333C34.0001 27.1512 33.503 28.4193 32.6106 29.3781C31.7182 30.337 30.4978 30.9141 29.1992 30.9914L28.9 31H5.1C3.79914 31.0001 2.54742 30.4966 1.60096 29.5925C0.654488 28.6884 0.0848172 27.452 0.0085002 26.1364L7.92276e-09 25.8333V10.3333C-7.24569e-05 9.01547 0.496953 7.74739 1.38938 6.78855C2.28181 5.82971 3.50218 5.25259 4.8008 5.17528L5.1 5.16667H6.8C7.25087 5.16667 7.68327 4.98522 8.00208 4.66224C8.32089 4.33926 8.5 3.90121 8.5 3.44444C8.49973 2.57545 8.82369 1.73847 9.40695 1.10128C9.9902 0.464088 10.7896 0.0737859 11.645 0.00861148L11.9 1.72684e-07H22.1ZM17 12.0556C15.7362 12.0555 14.5174 12.5307 13.5798 13.3892C12.6423 14.2477 12.0527 15.4283 11.9255 16.7021L11.9068 16.9639L11.9 17.2222L11.9068 17.4806C11.9567 18.4902 12.2978 19.4628 12.888 20.2779C13.4781 21.0931 14.2914 21.7149 15.2269 22.0664C16.1625 22.418 17.1793 22.4837 18.1514 22.2556C19.1235 22.0275 20.0082 21.5154 20.6959 20.7829C21.3836 20.0505 21.844 19.1297 22.0203 18.1347C22.1965 17.1397 22.0807 16.1142 21.6873 15.1852C21.2939 14.2562 20.6401 13.4645 19.807 12.9082C18.9738 12.3519 17.9978 12.0555 17 12.0556Z" fill="white"/>
</svg>
